<svg width="510" height="128" viewBox="0 0 510 128" fill="none" xmlns="http://www.w3.org/2000/svg">
<path d="M0.296875 115.141C2.45312 113.828 4.29688 112.453 5.82812 111.016C7.39062 109.578 8.67188 107.984 9.67188 106.234C10.6719 104.516 11.4062 102.594 11.875 100.469C12.3438 98.3125 12.5781 95.875 12.5781 93.1562V29.7344H27.4375V90.4844C27.4375 93.7344 27.2969 96.7031 27.0156 99.3906C26.7344 102.047 26.2656 104.484 25.6094 106.703C24.9844 108.953 24.125 111.016 23.0312 112.891C21.9688 114.766 20.6406 116.547 19.0469 118.234C17.4844 119.922 15.625 121.547 13.4688 123.109C11.3438 124.672 8.875 126.25 6.0625 127.844L0.296875 115.141ZM31.8062 75.3438C31.8062 71.375 32.6031 67.6562 34.1969 64.1875C35.8219 60.7188 38.1187 57.6875 41.0875 55.0938C44.0875 52.5 47.6969 50.4531 51.9156 48.9531C56.1656 47.4531 60.9312 46.7031 66.2125 46.7031C71.4937 46.7031 76.2437 47.4531 80.4625 48.9531C84.7125 50.4531 88.3219 52.5 91.2906 55.0938C94.2906 57.6875 96.5875 60.7188 98.1812 64.1875C99.8062 67.6562 100.619 71.375 100.619 75.3438C100.619 79.3125 99.8062 83.0312 98.1812 86.5C96.5875 89.9688 94.2906 93 91.2906 95.5938C88.3219 98.1875 84.7125 100.234 80.4625 101.734C76.2437 103.234 71.4937 103.984 66.2125 103.984C60.9312 103.984 56.1656 103.234 51.9156 101.734C47.6969 100.234 44.0875 98.1875 41.0875 95.5938C38.1187 93 35.8219 89.9688 34.1969 86.5C32.6031 83.0312 31.8062 79.3125 31.8062 75.3438ZM46.3844 75.3438C46.3844 77.5625 46.8219 79.6719 47.6969 81.6719C48.6031 83.6406 49.9 85.3906 51.5875 86.9219C53.3062 88.4219 55.3844 89.625 57.8219 90.5312C60.2906 91.4062 63.0875 91.8438 66.2125 91.8438C69.3375 91.8438 72.1187 91.4062 74.5562 90.5312C77.025 89.625 79.1031 88.4219 80.7906 86.9219C82.5094 85.3906 83.8062 83.6406 84.6812 81.6719C85.5875 79.6719 86.0406 77.5625 86.0406 75.3438C86.0406 73.125 85.5875 71.0156 84.6812 69.0156C83.8062 67.0156 82.5094 65.2656 80.7906 63.7656C79.1031 62.2344 77.025 61.0312 74.5562 60.1562C72.1187 59.25 69.3375 58.7969 66.2125 58.7969C63.0875 58.7969 60.2906 59.25 57.8219 60.1562C55.3844 61.0312 53.3062 62.2344 51.5875 63.7656C49.9 65.2656 48.6031 67.0156 47.6969 69.0156C46.8219 71.0156 46.3844 73.125 46.3844 75.3438ZM101.706 75.3438C101.706 71.375 102.503 67.6562 104.097 64.1875C105.722 60.7188 108.019 57.6875 110.988 55.0938C113.988 52.5 117.597 50.4531 121.816 48.9531C126.066 47.4531 130.831 46.7031 136.113 46.7031C141.394 46.7031 146.144 47.4531 150.363 48.9531C154.613 50.4531 158.222 52.5 161.191 55.0938C164.191 57.6875 166.488 60.7188 168.081 64.1875C169.706 67.6562 170.519 71.375 170.519 75.3438C170.519 79.3125 169.706 83.0312 168.081 86.5C166.488 89.9688 164.191 93 161.191 95.5938C158.222 98.1875 154.613 100.234 150.363 101.734C146.144 103.234 141.394 103.984 136.113 103.984C130.831 103.984 126.066 103.234 121.816 101.734C117.597 100.234 113.988 98.1875 110.988 95.5938C108.019 93 105.722 89.9688 104.097 86.5C102.503 83.0312 101.706 79.3125 101.706 75.3438ZM116.284 75.3438C116.284 77.5625 116.722 79.6719 117.597 81.6719C118.503 83.6406 119.8 85.3906 121.488 86.9219C123.206 88.4219 125.284 89.625 127.722 90.5312C130.191 91.4062 132.988 91.8438 136.113 91.8438C139.238 91.8438 142.019 91.4062 144.456 90.5312C146.925 89.625 149.003 88.4219 150.691 86.9219C152.409 85.3906 153.706 83.6406 154.581 81.6719C155.488 79.6719 155.941 77.5625 155.941 75.3438C155.941 73.125 155.488 71.0156 154.581 69.0156C153.706 67.0156 152.409 65.2656 150.691 63.7656C149.003 62.2344 146.925 61.0312 144.456 60.1562C142.019 59.25 139.238 58.7969 136.113 58.7969C132.988 58.7969 130.191 59.25 127.722 60.1562C125.284 61.0312 123.206 62.2344 121.488 63.7656C119.8 65.2656 118.503 67.0156 117.597 69.0156C116.722 71.0156 116.284 73.125 116.284 75.3438ZM174.559 25.2344H188.434V52.8906C189.653 52.0469 191.091 51.25 192.747 50.5C194.403 49.75 196.184 49.0938 198.091 48.5312C199.997 47.9688 201.966 47.5312 203.997 47.2188C206.028 46.875 208.059 46.7031 210.091 46.7031C214.778 46.7031 219.075 47.3906 222.981 48.7656C226.919 50.1406 230.294 52.0781 233.106 54.5781C235.919 57.0781 238.106 60.0781 239.669 63.5781C241.262 67.0469 242.059 70.8906 242.059 75.1094C242.059 79.5156 241.231 83.5 239.575 87.0625C237.919 90.5938 235.622 93.625 232.684 96.1562C229.778 98.6562 226.309 100.594 222.278 101.969C218.278 103.312 213.934 103.984 209.247 103.984C207.247 103.984 205.262 103.859 203.294 103.609C201.356 103.359 199.481 103.016 197.669 102.578C195.887 102.141 194.2 101.625 192.606 101.031C191.044 100.406 189.653 99.7344 188.434 99.0156V103H174.559V25.2344ZM188.434 85.6094C189.841 86.7344 191.325 87.6875 192.887 88.4688C194.45 89.25 196.044 89.8906 197.669 90.3906C199.294 90.8906 200.934 91.2656 202.591 91.5156C204.247 91.7344 205.856 91.8438 207.419 91.8438C210.606 91.8438 213.434 91.4219 215.903 90.5781C218.403 89.7031 220.497 88.5156 222.184 87.0156C223.903 85.5156 225.216 83.75 226.122 81.7188C227.028 79.6875 227.481 77.4844 227.481 75.1094C227.481 72.8906 227.028 70.7969 226.122 68.8281C225.247 66.8594 223.966 65.1406 222.278 63.6719C220.622 62.1719 218.606 61 216.231 60.1562C213.887 59.2812 211.247 58.8438 208.309 58.8438C206.434 58.8438 204.559 59.0312 202.684 59.4062C200.809 59.75 198.997 60.25 197.247 60.9062C195.528 61.5625 193.903 62.3594 192.372 63.2969C190.872 64.2344 189.559 65.2812 188.434 66.4375V85.6094ZM245.678 25.2344H259.553V103H245.678V25.2344ZM274.375 109.938C275.812 110.875 277.375 111.703 279.062 112.422C280.75 113.141 282.5 113.734 284.312 114.203C286.156 114.672 288.031 115.016 289.938 115.234C291.844 115.484 293.734 115.609 295.609 115.609C301.984 115.609 306.891 114.234 310.328 111.484C313.797 108.766 315.531 104.672 315.531 99.2031V97.3281C314.312 98.1719 312.938 98.9531 311.406 99.6719C309.906 100.359 308.281 100.953 306.531 101.453C304.812 101.953 302.984 102.344 301.047 102.625C299.141 102.875 297.203 103 295.234 103C291.016 103 287.234 102.391 283.891 101.172C280.578 99.9219 277.766 98.1094 275.453 95.7344C273.172 93.3281 271.422 90.375 270.203 86.875C268.984 83.375 268.375 79.375 268.375 74.875V47.6875H282.203V71.0312C282.203 77.7188 283.469 82.6562 286 85.8438C288.562 89 292.594 90.5781 298.094 90.5781C301.969 90.5781 305.391 89.9062 308.359 88.5625C311.359 87.1875 313.75 85.4375 315.531 83.3125V47.6875H329.406V96.6719C329.406 101.953 328.656 106.531 327.156 110.406C325.656 114.312 323.469 117.547 320.594 120.109C317.75 122.672 314.25 124.578 310.094 125.828C305.938 127.109 301.219 127.75 295.938 127.75C290.781 127.75 285.969 127.203 281.5 126.109C277.031 125.016 272.938 123.531 269.219 121.656L274.375 109.938ZM338.041 94.8906C338.041 93.6406 338.291 92.4688 338.791 91.375C339.322 90.25 340.072 89.2812 341.041 88.4688C342.009 87.625 343.181 86.9688 344.556 86.5C345.931 86.0312 347.478 85.7969 349.197 85.7969C350.916 85.7969 352.462 86.0312 353.837 86.5C355.212 86.9688 356.369 87.625 357.306 88.4688C358.275 89.2812 359.009 90.25 359.509 91.375C360.041 92.4688 360.306 93.6406 360.306 94.8906C360.306 96.1406 360.041 97.3281 359.509 98.4531C359.009 99.5469 358.275 100.5 357.306 101.312C356.369 102.125 355.212 102.766 353.837 103.234C352.462 103.734 350.916 103.984 349.197 103.984C347.478 103.984 345.931 103.734 344.556 103.234C343.181 102.766 342.009 102.125 341.041 101.312C340.072 100.5 339.322 99.5469 338.791 98.4531C338.291 97.3281 338.041 96.1406 338.041 94.8906ZM368.378 47.6406H382.206V74.6406C382.206 77.2031 382.487 79.5469 383.05 81.6719C383.612 83.7656 384.566 85.5625 385.909 87.0625C387.284 88.5625 389.097 89.7344 391.347 90.5781C393.628 91.3906 396.456 91.7969 399.831 91.7969C401.425 91.7969 403.034 91.625 404.659 91.2812C406.316 90.9375 407.894 90.4688 409.394 89.875C410.894 89.25 412.284 88.5156 413.566 87.6719C414.878 86.8281 416.003 85.9062 416.941 84.9062V47.6406H430.816V103H416.941V98.2656C413.534 100.297 410.112 101.75 406.675 102.625C403.237 103.5 399.972 103.938 396.878 103.938C391.816 103.938 387.472 103.328 383.847 102.109C380.253 100.891 377.3 99.125 374.987 96.8125C372.706 94.4688 371.034 91.6094 369.972 88.2344C368.909 84.8281 368.378 80.9531 368.378 76.6094V47.6406ZM436.216 85.5625C436.216 82.9062 436.794 80.4844 437.95 78.2969C439.106 76.1094 440.841 74.2344 443.153 72.6719C445.466 71.0781 448.341 69.8594 451.778 69.0156C455.247 68.1406 459.278 67.7031 463.872 67.7031C467.278 67.7031 470.856 67.9531 474.606 68.4531C478.388 68.9531 482.278 69.7188 486.278 70.75C486.122 69 485.591 67.3906 484.684 65.9219C483.778 64.4219 482.513 63.1406 480.888 62.0781C479.294 60.9844 477.356 60.1406 475.075 59.5469C472.825 58.9531 470.263 58.6562 467.388 58.6562C465.825 58.6562 464.106 58.75 462.231 58.9375C460.356 59.125 458.419 59.4062 456.419 59.7812C454.419 60.1562 452.434 60.625 450.466 61.1875C448.528 61.75 446.716 62.4219 445.028 63.2031L440.809 51.8125C442.903 51.0625 445.138 50.375 447.513 49.75C449.919 49.125 452.372 48.5938 454.872 48.1562C457.372 47.6875 459.872 47.3281 462.372 47.0781C464.872 46.8281 467.294 46.7031 469.638 46.7031C479.981 46.7031 487.669 49.3438 492.7 54.625C497.731 59.9062 500.247 68 500.247 78.9062V103H486.372V97.7969C484.934 98.6406 483.356 99.4375 481.638 100.188C479.95 100.938 478.106 101.594 476.106 102.156C474.106 102.719 471.95 103.156 469.638 103.469C467.356 103.812 464.934 103.984 462.372 103.984C458.059 103.984 454.263 103.516 450.981 102.578C447.731 101.641 445.013 100.344 442.825 98.6875C440.638 97.0312 438.981 95.0938 437.856 92.875C436.763 90.625 436.216 88.1875 436.216 85.5625ZM450.841 85.0938C450.841 86 451.075 86.875 451.544 87.7188C452.013 88.5312 452.763 89.2656 453.794 89.9219C454.825 90.5469 456.138 91.0625 457.731 91.4688C459.356 91.8438 461.309 92.0312 463.591 92.0312C466.028 92.0312 468.388 91.8125 470.669 91.375C472.95 90.9375 475.075 90.3594 477.044 89.6406C479.013 88.9219 480.794 88.0938 482.388 87.1562C483.981 86.2188 485.309 85.25 486.372 84.25V81.8125C484.247 81.2188 482.138 80.7188 480.044 80.3125C477.981 79.9062 475.997 79.5938 474.091 79.375C472.216 79.125 470.434 78.9531 468.747 78.8594C467.091 78.7656 465.638 78.7188 464.388 78.7188C461.794 78.7188 459.638 78.8906 457.919 79.2344C456.2 79.5781 454.809 80.0469 453.747 80.6406C452.684 81.2031 451.934 81.875 451.497 82.6562C451.059 83.4375 450.841 84.25 450.841 85.0938Z" fill="#1C64EE"/>
<path d="M47.9062 24.0625L53.1094 13.3281L85.2656 28.375L80.625 38.0781L47.9062 24.0625Z" fill="#1C64EE"/>
<path d="M157.094 24.0625L151.891 13.3281L119.734 28.375L124.375 38.0781L157.094 24.0625Z" fill="#1C64EE"/>
<path d="M146.047 74.8906C146.047 73.6406 145.797 72.4688 145.297 71.375C144.766 70.25 144.016 69.2812 143.047 68.4688C142.078 67.625 140.906 66.9688 139.531 66.5C138.156 66.0312 136.609 65.7969 134.891 65.7969C133.172 65.7969 131.625 66.0312 130.25 66.5C128.875 66.9688 127.719 67.625 126.781 68.4688C125.812 69.2812 125.078 70.25 124.578 71.375C124.047 72.4688 123.781 73.6406 123.781 74.8906C123.781 76.1406 124.047 77.3281 124.578 78.4531C125.078 79.5469 125.812 80.5 126.781 81.3125C127.719 82.125 128.875 82.7656 130.25 83.2344C131.625 83.7344 133.172 83.9844 134.891 83.9844C136.609 83.9844 138.156 83.7344 139.531 83.2344C140.906 82.7656 142.078 82.125 143.047 81.3125C144.016 80.5 144.766 79.5469 145.297 78.4531C145.797 77.3281 146.047 76.1406 146.047 74.8906Z" fill="#1C64EE"/>
<path d="M78.0469 74.8906C78.0469 73.6406 77.7969 72.4688 77.2969 71.375C76.7656 70.25 76.0156 69.2812 75.0469 68.4688C74.0781 67.625 72.9062 66.9688 71.5312 66.5C70.1562 66.0312 68.6094 65.7969 66.8906 65.7969C65.1719 65.7969 63.625 66.0312 62.25 66.5C60.875 66.9688 59.7188 67.625 58.7812 68.4688C57.8125 69.2812 57.0781 70.25 56.5781 71.375C56.0469 72.4688 55.7812 73.6406 55.7812 74.8906C55.7812 76.1406 56.0469 77.3281 56.5781 78.4531C57.0781 79.5469 57.8125 80.5 58.7812 81.3125C59.7188 82.125 60.875 82.7656 62.25 83.2344C63.625 83.7344 65.1719 83.9844 66.8906 83.9844C68.6094 83.9844 70.1562 83.7344 71.5312 83.2344C72.9062 82.7656 74.0781 82.125 75.0469 81.3125C76.0156 80.5 76.7656 79.5469 77.2969 78.4531C77.7969 77.3281 78.0469 76.1406 78.0469 74.8906Z" fill="#1C64EE"/>
</svg>
